# xmcd CD database file
#
# Track frame offsets:
#	150
#	15040
#	34465
#
# Disc length: 628 seconds
#
# Revision: 1
# Processed by: cddbd v1.5.2PL0 Copyright (c) Steve Scherf et al.
# Submitted via: CDex 1.51
#
DISCID=16027203
DTITLE=GRASS-SHOW - OUT OF THE VOID (SINGLE)
DYEAR=1996
DGENRE=Rock
TTITLE0=OUT OF THE VOID
TTITLE1=UNREAL WORLD
TTITLE2=ALICE
EXTD=YEAR: 1996
EXTT0=
EXTT1=
EXTT2=
PLAYORDER=
